HIERARCHY
ROOT joint_Root
{
	OFFSET 0.0 0.0 0.0
	CHANNELS 6 Xposition Yposition Zposition Zrotation Xrotation Yrotation 
	JOINT Hips
	{
		OFFSET -0.726466 93.3139 -2.00062
		CHANNELS 6 Xposition Yposition Zposition Zrotation Xrotation Yrotation 
		JOINT Spine
		{
			OFFSET 15.7357 0.0 0.0
			CHANNELS 6 Xposition Yposition Zposition Zrotation Xrotation Yrotation 
			JOINT Chest
			{
				OFFSET 8.98455 -0.406207 0.0
				CHANNELS 6 Xposition Yposition Zposition Zrotation Xrotation Yrotation 
				JOINT Neck
				{
					OFFSET 16.3773 0.0 0.0
					CHANNELS 6 Xposition Yposition Zposition Zrotation Xrotation Yrotation 
					JOINT Head
					{
						OFFSET 6.45672 0.0 0.0
						CHANNELS 6 Xposition Yposition Zposition Zrotation Xrotation Yrotation 
						End Site
						{
							OFFSET 0.0 0.0 0.0
						}
					}
				}
				JOINT Shoulder_L
				{
					OFFSET 12.9942 -0.242716 4.98039
					CHANNELS 6 Xposition Yposition Zposition Zrotation Xrotation Yrotation 
					JOINT UpperArm_L
					{
						OFFSET 5.34809 0.0 0.0
						CHANNELS 6 Xposition Yposition Zposition Zrotation Xrotation Yrotation 
						JOINT LowerArm_L
						{
							OFFSET 24.3286 1.87007e-05 0.0
							CHANNELS 6 Xposition Yposition Zposition Zrotation Xrotation Yrotation 
							JOINT Hand_L
							{
								OFFSET 22.2916 0.0 0.0
								CHANNELS 6 Xposition Yposition Zposition Zrotation Xrotation Yrotation 
								End Site
								{
									OFFSET 0.0 0.0 0.0
								}
							}
						}
					}
				}
				JOINT Shoulder_R
				{
					OFFSET 12.9945 -0.242716 -4.98039
					CHANNELS 6 Xposition Yposition Zposition Zrotation Xrotation Yrotation 
					JOINT UpperArm_R
					{
						OFFSET -5.34813 0.0 0.0
						CHANNELS 6 Xposition Yposition Zposition Zrotation Xrotation Yrotation 
						JOINT LowerArm_R
						{
							OFFSET -24.3289 0.000322201 0.0
							CHANNELS 6 Xposition Yposition Zposition Zrotation Xrotation Yrotation 
							JOINT Hand_R
							{
								OFFSET -22.2915 -0.000108084 0.0
								CHANNELS 6 Xposition Yposition Zposition Zrotation Xrotation Yrotation 
								End Site
								{
									OFFSET 0.0 0.0 0.0
								}
							}
						}
					}
				}
			}
		}
		JOINT UpperLeg_L
		{
			OFFSET -2.19248 -6.46944 0.0
			CHANNELS 6 Xposition Yposition Zposition Zrotation Xrotation Yrotation 
			JOINT LowerLeg_L
			{
				OFFSET 39.0811 0.0 -1.23785e-05
				CHANNELS 6 Xposition Yposition Zposition Zrotation Xrotation Yrotation 
				JOINT Foot_L
				{
					OFFSET 40.9854 0.0 -1.26872e-05
					CHANNELS 6 Xposition Yposition Zposition Zrotation Xrotation Yrotation 
					JOINT Toes_L
					{
						OFFSET 11.7543 0.0 0.0
						CHANNELS 6 Xposition Yposition Zposition Zrotation Xrotation Yrotation 
						End Site
						{
							OFFSET 0.0 0.0 0.0
						}
					}
				}
			}
		}
		JOINT UpperLeg_R
		{
			OFFSET -2.19251 6.46944 0.0
			CHANNELS 6 Xposition Yposition Zposition Zrotation Xrotation Yrotation 
			JOINT LowerLeg_R
			{
				OFFSET -39.0811 -0.00228153 -0.0401928
				CHANNELS 6 Xposition Yposition Zposition Zrotation Xrotation Yrotation 
				JOINT Foot_R
				{
					OFFSET -40.9854 0.0 0.0
					CHANNELS 6 Xposition Yposition Zposition Zrotation Xrotation Yrotation 
					JOINT Toes_R
					{
						OFFSET -11.7543 0.0 0.0
						CHANNELS 6 Xposition Yposition Zposition Zrotation Xrotation Yrotation 
						End Site
						{
							OFFSET 0.0 0.0 0.0
						}
					}
				}
			}
		}
	}
}
MOTION
Frames:	5
Frame Time:	0.0333333
0.000000 0.000000 0.000000 0.000000 0.000000 -0.000000 -0.368173 92.482300 -1.319430 87.860400 -0.439945 2.925130 15.735700 0.000005 -0.000001 95.446200 85.946400 -96.117500 8.984550 -0.406207 -0.000000 0.309832 0.812908 -1.343890 16.377300 -0.000001 -0.000001 3.393790 -2.869540 0.178489 6.456720 -0.000001 -0.000000 1.426230 -2.555550 -7.122320 12.994200 -0.242716 4.980390 -89.780200 -0.678030 -72.034500 5.348090 -0.000007 -0.000001 -68.578100 36.545900 -12.224000 24.328600 0.000019 0.000005 1.243810 3.246350 -20.976800 22.291600 -0.000001 0.000005 3.844360 5.445560 -4.481540 12.994500 -0.242716 -4.980390 90.033200 -0.088311 -69.414400 -5.348130 -0.000001 -0.000004 -69.209100 -36.624300 -84.181400 -24.328900 0.000322 -0.000009 20.648400 2.866600 -82.441300 -22.291500 -0.000108 -0.000004 37.271500 5.020920 6.870070 -2.192480 -6.469440 -0.000000 -175.807000 -5.788130 -3.998100 39.081100 -0.000007 -0.000012 -0.095000 0.232463 22.228300 40.985400 -0.000006 -0.000013 -0.063482 2.987510 -65.570800 11.754300 -0.000000 0.000003 -0.000028 -0.000341 -16.590900 -2.192510 6.469440 -0.000001 -179.962000 13.540000 178.471000 -39.081100 -0.002282 -0.040193 -0.017025 0.060324 18.640700 -40.985400 0.000008 0.000006 3.603920 7.379910 -64.751200 -11.754300 -0.000006 -0.000006 -0.007854 -0.086840 -20.109100
0.000000 0.000000 0.000000 0.000000 0.000000 -0.000000 -0.347345 92.462200 -1.243410 87.810100 -0.937096 3.006210 15.735700 0.000005 -0.000001 95.311500 85.943500 -95.907600 8.984550 -0.406207 -0.000000 0.316507 0.789535 -1.193460 16.377300 -0.000001 -0.000001 3.531020 -3.047190 0.315621 6.456720 -0.000001 -0.000000 1.497470 -2.751310 -7.092670 12.994200 -0.242716 4.980390 -89.775100 -0.695330 -72.071800 5.348090 -0.000007 -0.000001 -68.837800 36.511700 -11.914400 24.328600 0.000019 0.000005 1.383640 3.726570 -20.385800 22.291600 -0.000001 0.000005 3.744610 5.444420 -4.441310 12.994500 -0.242716 -4.980390 89.996400 0.009645 -69.401300 -5.348130 -0.000001 -0.000004 -61.811800 -36.059600 -81.301400 -24.328900 0.000322 -0.000009 21.225800 1.674390 -85.698000 -22.291500 -0.000108 -0.000004 36.884900 5.056130 6.100560 -2.192480 -6.469440 -0.000000 -175.744000 -6.054900 -3.826600 39.081100 -0.000007 -0.000012 -0.095415 0.232266 22.332900 40.985400 -0.000006 -0.000013 -0.093340 2.793990 -65.732400 11.754300 -0.000000 0.000003 -0.000035 -0.000417 -16.593800 -2.192510 6.469440 -0.000001 -179.952000 13.183700 178.537000 -39.081100 -0.002282 -0.040193 -0.018699 0.064925 18.737200 -40.985400 0.000008 0.000006 3.614920 7.546940 -64.829800 -11.754300 -0.000006 -0.000006 -0.007779 -0.086217 -20.083700
0.000000 0.000000 0.000000 0.000000 0.000000 -0.000000 -0.343142 92.453700 -1.183580 87.792200 -1.479500 3.029600 15.735700 0.000005 -0.000001 95.503600 85.952500 -96.043900 8.984550 -0.406207 -0.000000 0.295681 0.811351 -1.081900 16.377300 -0.000001 -0.000001 3.600360 -3.197700 0.414970 6.456720 -0.000001 -0.000000 1.694630 -2.988520 -6.995640 12.994200 -0.242716 4.980390 -89.771900 -0.705951 -72.090500 5.348090 -0.000007 -0.000001 -68.995400 36.380800 -11.753500 24.328600 0.000019 0.000005 1.433820 3.962120 -19.912200 22.291600 -0.000001 0.000005 3.709230 5.441280 -4.330680 12.994500 -0.242716 -4.980390 89.944200 0.148607 -69.422100 -5.348130 -0.000001 -0.000004 -53.965700 -35.383900 -78.602300 -24.328900 0.000322 -0.000009 22.334100 0.374843 -89.087600 -22.291500 -0.000108 -0.000004 35.984400 5.084880 5.456740 -2.192480 -6.469440 -0.000000 -175.714000 -6.331280 -3.685710 39.081100 -0.000007 -0.000012 -0.098959 0.240794 22.341200 40.985400 -0.000006 -0.000013 -0.144290 2.552490 -65.821300 11.754300 -0.000000 0.000003 -0.000033 -0.000396 -16.593000 -2.192510 6.469440 -0.000001 -179.951000 12.873800 178.547000 -39.081100 -0.002282 -0.040193 -0.020476 0.070031 18.769800 -40.985400 0.000008 0.000006 3.526410 7.754840 -64.831800 -11.754300 -0.000006 -0.000006 -0.007727 -0.085787 -20.066100
0.000000 0.000000 0.000000 0.000000 0.000000 -0.000000 -0.344710 92.442800 -1.126310 87.736800 -1.929960 3.079800 15.735700 0.000005 -0.000001 95.678100 85.956800 -96.162700 8.984550 -0.406207 -0.000000 0.284491 0.831468 -0.970616 16.377300 -0.000001 -0.000001 3.711410 -3.393110 0.580355 6.456720 -0.000001 -0.000000 1.788540 -3.232810 -7.021000 12.994200 -0.242716 4.980390 -89.772600 -0.702718 -72.065500 5.348090 -0.000007 -0.000001 -69.096200 36.069300 -11.687000 24.328600 0.000019 0.000005 1.547930 4.346410 -19.624100 22.291600 -0.000001 0.000005 3.824470 5.440030 -4.286740 12.994500 -0.242716 -4.980390 89.898100 0.272642 -69.510900 -5.348130 -0.000001 -0.000004 -45.975600 -34.714900 -75.869300 -24.328900 0.000322 -0.000009 23.870500 -1.137850 -92.568600 -22.291500 -0.000108 -0.000004 34.670000 5.122690 4.585620 -2.192480 -6.469440 -0.000000 -175.660000 -6.512230 -3.552380 39.081100 -0.000007 -0.000012 -0.097618 0.236837 22.400300 40.985400 -0.000006 -0.000013 -0.198329 2.269020 -65.932100 11.754300 -0.000000 0.000003 -0.000033 -0.000388 -16.592700 -2.192510 6.469440 -0.000001 -179.916000 12.631600 178.597000 -39.081100 -0.002282 -0.040193 -0.019983 0.068421 18.810900 -40.985400 0.000008 0.000006 3.613320 7.959100 -64.883300 -11.754300 -0.000006 -0.000006 -0.007766 -0.086108 -20.079300
0.000000 0.000000 0.000000 0.000000 0.000000 -0.000000 -0.361209 92.427700 -1.081550 87.699900 -2.254880 3.143450 15.735700 0.000005 -0.000001 96.195100 85.932400 -96.646000 8.984550 -0.406207 -0.000000 0.325443 0.906922 -0.903722 16.377300 -0.000001 -0.000001 3.711570 -3.530740 0.688097 6.456720 -0.000001 -0.000000 1.821190 -3.524700 -6.920780 12.994200 -0.242716 4.980390 -89.760600 -0.741423 -72.104900 5.348090 -0.000007 -0.000001 -69.038100 35.934500 -11.848400 24.328600 0.000019 0.000005 1.496820 4.210550 -19.589800 22.291600 -0.000001 0.000005 3.847470 5.438190 -4.222440 12.994500 -0.242716 -4.980390 89.880200 0.321400 -69.564800 -5.348130 -0.000001 -0.000004 -39.233200 -34.148000 -73.656500 -24.328900 0.000322 -0.000009 26.040200 -2.827250 -95.763900 -22.291500 -0.000108 -0.000004 33.152400 5.166400 3.544020 -2.192480 -6.469440 -0.000000 -175.588000 -6.658540 -3.449050 39.081100 -0.000007 -0.000012 -0.102896 0.248585 22.486100 40.985400 -0.000006 -0.000013 -0.255163 2.100730 -66.031400 11.754300 -0.000000 0.000003 -0.000031 -0.000376 -16.592200 -2.192510 6.469440 -0.000001 -179.898000 12.466400 178.651000 -39.081100 -0.002282 -0.040193 -0.022024 0.074184 18.864500 -40.985400 0.000008 0.000006 3.523270 8.121890 -64.908700 -11.754300 -0.000006 -0.000006 -0.007864 -0.086915 -20.112200
